<svg width="54" height="54" viewBox="0 0 54 54" fill="none" xmlns="http://www.w3.org/2000/svg">
<path d="M26.861 53.722C41.6959 53.722 53.722 41.6959 53.722 26.861C53.722 12.0261 41.6959 0 26.861 0C12.0261 0 0 12.0261 0 26.861C0 41.6959 12.0261 53.722 26.861 53.722Z" fill="#381f20"/>
<path d="M20.4231 26.024C20.2913 26.1273 20.1847 26.2593 20.1114 26.41C20.0381 26.5606 20 26.7259 20 26.8935C20 27.061 20.0381 27.2263 20.1114 27.377C20.1847 27.5276 20.2913 27.6596 20.4231 27.763L29.9171 38.714C30.0042 38.854 30.1228 38.9718 30.2634 39.0579C30.4041 39.144 30.5629 39.1961 30.7272 39.21C30.8916 39.2239 31.0569 39.1992 31.21 39.1379C31.3631 39.0766 31.4997 38.9804 31.6091 38.857L32.6431 38.011C32.7839 37.9286 32.9021 37.8127 32.9873 37.6736C33.0725 37.5345 33.1219 37.3765 33.1312 37.2137C33.1405 37.0508 33.1094 36.8882 33.0406 36.7403C32.9719 36.5924 32.8676 36.4638 32.7371 36.366L24.3241 26.872L32.7371 17.657C33.3011 17.046 33.2541 16.576 32.5961 16.106L31.5621 15.357C31.448 15.2336 31.3073 15.1378 31.1508 15.0767C30.9942 15.0157 30.8258 14.991 30.6583 15.0046C30.4908 15.0182 30.3286 15.0697 30.1839 15.1551C30.0392 15.2406 29.9158 15.3578 29.8231 15.498L20.4231 26.024Z" fill="white"/>
</svg>
