<svg width="29" height="31" viewBox="0 0 29 31" fill="none" xmlns="http://www.w3.org/2000/svg">
<path d="M25.0009 0.628946L7.28491 13.3379C6.90553 13.5587 6.59064 13.8752 6.37183 14.2557C6.15301 14.6362 6.03784 15.0675 6.03784 15.5064C6.03784 15.9454 6.15301 16.3767 6.37183 16.7572C6.59064 17.1377 6.90553 17.4542 7.28491 17.675L25.0009 30.384L25.0259 30.402C26.1379 31.187 28.0259 30.602 28.0259 29.482L28.0259 1.53098C28.0259 0.411985 26.1399 -0.16906 25.0259 0.610941L25.0009 0.628946Z" fill="#AA5156"/>
<path d="M0 28C0 29.6569 1.34315 31 3 31C4.65685 31 6 29.6569 6 28L6 3C6 1.34315 4.65685 0 3 0C1.34315 0 0 1.34315 0 3L0 28Z" fill="#AA5156"/>
</svg>
