<svg width="54" height="54" viewBox="0 0 54 54" fill="none" xmlns="http://www.w3.org/2000/svg">
<path d="M26.833 53.666C41.6525 53.666 53.666 41.6525 53.666 26.833C53.666 12.0135 41.6525 0 26.833 0C12.0135 0 0 12.0135 0 26.833C0 41.6525 12.0135 53.666 26.833 53.666Z" fill="#AA5156"/>
<path d="M24 17C24 15.3431 22.6569 14 21 14C19.3431 14 18 15.3431 18 17V36.428C18 38.0849 19.3431 39.428 21 39.428C22.6569 39.428 24 38.0849 24 36.428V17Z" fill="white"/>
<path d="M35 17C35 15.3431 33.6569 14 32 14C30.3431 14 29 15.3431 29 17V36.428C29 38.0849 30.3431 39.428 32 39.428C33.6569 39.428 35 38.0849 35 36.428V17Z" fill="white"/>
</svg>
