<svg width="54" height="54" viewBox="0 0 54 54" fill="none" xmlns="http://www.w3.org/2000/svg">
<path d="M26.833 53.666C41.6525 53.666 53.666 41.6525 53.666 26.833C53.666 12.0135 41.6525 0 26.833 0C12.0135 0 0 12.0135 0 26.833C0 41.6525 12.0135 53.666 26.833 53.666Z" fill="#AA5156"/>
<path d="M21.999 41.753L39.715 29.044C40.0943 28.8232 40.4092 28.5068 40.6281 28.1262C40.8469 27.7457 40.962 27.3145 40.962 26.8755C40.962 26.4366 40.8469 26.0053 40.6281 25.6248C40.4092 25.2443 40.0943 24.9278 39.715 24.707L21.999 11.998L21.974 11.98C20.862 11.195 18.974 11.78 18.974 12.9V40.851C18.974 41.97 20.86 42.551 21.974 41.771L21.999 41.753Z" fill="white"/>
</svg>
