<svg width="29" height="31" viewBox="0 0 29 31" fill="none" xmlns="http://www.w3.org/2000/svg">
<path d="M3.02307 30.3711L20.739 17.6621C21.1184 17.4413 21.4333 17.1248 21.6521 16.7443C21.8709 16.3638 21.9861 15.9325 21.9861 15.4936C21.9861 15.0546 21.8709 14.6233 21.6521 14.2428C21.4333 13.8623 21.1184 13.5458 20.739 13.325L3.02307 0.616049L2.99805 0.598043C1.88605 -0.186957 -0.00195312 0.398026 -0.00195312 1.51803V29.469C-0.00195312 30.588 1.88405 31.1691 2.99805 30.3891L3.02307 30.3711Z" fill="#AA5156"/>
<path d="M28.0239 3C28.0239 1.34315 26.6808 0 25.0239 0C23.3671 0 22.0239 1.34315 22.0239 3V28C22.0239 29.6569 23.3671 31 25.0239 31C26.6808 31 28.0239 29.6569 28.0239 28V3Z" fill="#AA5156"/>
</svg>
